<?xml version="1.0" encoding="utf-8"?>
<!-- Generator: Adobe Illustrator 21.0.0, SVG Export Plug-In . SVG Version: 6.00 Build 0)  -->
<svg version="1.1" id="Layer_1" xmlns="http://www.w3.org/2000/svg" xmlns:xlink="http://www.w3.org/1999/xlink" x="0px" y="0px"
	 viewBox="0 0 295 225" style="enable-background:new 0 0 295 225;" xml:space="preserve">
<style type="text/css">
	.st0{fill:none;}
	.st1{fill:#FFFFFF;}
	.st2{fill:#FFFFFF;stroke:#FFFFFF;stroke-miterlimit:10;}
</style>
<rect x="133.5" y="85.5" class="st0" width="28" height="28"/>
<rect x="77.5" y="85.5" class="st1" width="28" height="28"/>
<rect x="77.5" y="127.5" class="st1" width="28" height="28"/>
<rect x="77.5" y="169.5" class="st1" width="28" height="28"/>
<rect x="133.5" y="169.5" class="st1" width="28" height="28"/>
<rect x="133.5" y="127.5" class="st1" width="28" height="28"/>
<rect x="189.5" y="127.5" class="st1" width="28" height="28"/>
<rect x="133.5" y="85.5" class="st1" width="28" height="28"/>
<rect x="189.5" y="85.5" class="st1" width="28" height="28"/>
<rect x="34.5" y="28.5" class="st1" width="14" height="197"/>
<rect x="35" y="212.5" class="st1" width="224.5" height="13"/>
<rect x="246.5" y="29" class="st1" width="13" height="196"/>
<path class="st1" d="M230.3,28.5c-0.1,0.4-0.3,0.8-0.5,1.1c-0.2,0.4-0.5,0.8-0.7,1.2c-0.7,3-1.9,5.9-3.7,8.4c-3,8.2-11.9,12.8-21,13
	c-10.8,0.3-20.7-5.6-23.1-16.1c-0.3-0.5-0.6-1-0.8-1.6c-0.1-0.3-0.2-0.6-0.3-1c-0.6-0.9-1-1.9-1-2.9c0,0,0-0.1,0-0.1
	c-0.2-0.7-0.5-1.4-0.7-2.1c0,0,0-0.1,0-0.1h-62.3c-0.4,1.4-1.1,2.8-1.8,4c-0.1,0.2-0.2,0.4-0.3,0.6c0,0.3-0.1,0.6-0.1,0.9
	c-0.1,0.6-0.4,1.2-0.8,1.7c-0.1,0.6-0.3,1.2-0.6,1.7c-5,20.6-41.1,19.3-44.1-2.4c-0.1-0.2-0.1-0.3-0.1-0.5c-0.1-0.5-0.2-1.1-0.4-1.6
	c0,0,0,0,0,0c-0.1-0.5-0.3-1.1-0.4-1.6c-0.3-0.7-0.5-1.4-0.5-2.1v-0.1c-0.1-0.2-0.1-0.5-0.2-0.7H34.5v43h225v-43H230.3z"/>
<path class="st2" d="M97.5,42.5h-13c-3.8,0-7-3.1-7-7v-28c0-3.8,3.1-7,7-7h13c3.8,0,7,3.1,7,7v28C104.5,39.4,101.4,42.5,97.5,42.5z"
	/>
<path class="st2" d="M210.5,42.5h-13c-3.9,0-7-3.1-7-7v-28c0-3.8,3.1-7,7-7h13c3.9,0,7,3.1,7,7v28C217.5,39.4,214.4,42.5,210.5,42.5
	z"/>
</svg>
