<?xml version="1.0" encoding="utf-8"?>
<!-- Generator: Adobe Illustrator 21.0.0, SVG Export Plug-In . SVG Version: 6.00 Build 0)  -->
<svg version="1.1" xmlns="http://www.w3.org/2000/svg" xmlns:xlink="http://www.w3.org/1999/xlink" x="0px" y="0px"
	 viewBox="0 0 800 600" style="enable-background:new 0 0 800 600;" xml:space="preserve">
<style type="text/css">
	.st0{display:none;}
	.st1{display:inline;}
	.st2{fill:none;}
	.st3{fill:#FFFFFF;}
	.st4{display:inline;fill:#0003AA;}
	.st5{display:inline;fill:#1900D4;}
	.st6{fill:#FFFFFF;stroke:#FFFFFF;stroke-miterlimit:10;}
</style>
<g id="backdrop" class="st0">
	<path class="st1" d="M682,167H143c-6.6,0-12,5.4-12,12v284c0,6.6,5.4,12,12,12h539c6.6,0,12-5.4,12-12V179
		C694,172.4,688.6,167,682,167z M369.3,214.7c-0.4,1.7-1.2,3.3-2.1,4.8c-0.4,0.7-0.8,1.3-1.1,2.1c-0.1,0.1-0.1,0.1-0.1,0.1
		c0,0.1,0,0.2,0,0.3c0,0.4,0,0.6,0,0.1c0,0.8-0.3,1.6-0.7,2.3c-5,20.6-41.1,19.3-44.1-2.4c-0.1-0.2-0.1-0.3-0.1-0.5
		c-0.5-2.8-1.3-5.5-2-8.2c-0.7-2.6,0.9-5.4,3.5-6.2c2.6-0.7,5.5,0.9,6.2,3.5c0.6,2.3,1.2,4.6,1.7,6.9c0.3,0.6,0.6,1.4,0.6,2.3
		c0.4,12.2,24.2,13,24.8,0.8c0.1-1.2,0.5-2.2,1.1-2.9c0.3-0.7,0.5-1.3,0.9-2c0.4-0.8,0.8-1.5,1.2-2.3c0-0.1,0.3-0.6,0.4-0.8
		c0.1-0.2,0.2-0.8,0.2-0.8c0.6-2.6,3.6-4.2,6.2-3.5C368.5,209.3,369.9,212.1,369.3,214.7z M482.8,216.6c-1.3,2.2-2.8,4.4-3.7,6.9
		c-1.8,9.9-11.7,15.5-21.8,15.8c-10.8,0.3-20.7-5.6-23.1-16.1c-0.3-0.5-0.6-1-0.8-1.6c-0.6-2-1.3-4-2-6c-1-2.6,1.1-5.4,3.5-6.2
		c2.7-0.9,5.3,1,6.2,3.5c0.6,1.5,1.1,3.1,1.6,4.6c0.6,0.7,1,1.7,1.1,2.8c1,11,21.4,12.1,25.1,2.8c0-0.2,0-0.4,0.1-0.5
		c0.1-0.5,0.3-1.1,0.4-1.6c0-0.4,0.1-0.7,0.1-1.1c0-2,1-3.4,2.3-4.2c0.8-1.4,1.6-2.8,2.4-4.2C477.5,206.1,486.1,211.1,482.8,216.6z"
		/>
</g>
<g id="icon">
	<rect x="386.5" y="272.5" class="st2" width="28" height="28"/>
	<rect x="330.5" y="272.5" class="st3" width="28" height="28"/>
	<rect x="330.5" y="314.5" class="st3" width="28" height="28"/>
	<rect x="330.5" y="356.5" class="st3" width="28" height="28"/>
	<rect x="386.5" y="356.5" class="st3" width="28" height="28"/>
	<rect x="386.5" y="314.5" class="st3" width="28" height="28"/>
	<rect x="442.5" y="314.5" class="st3" width="28" height="28"/>
	<rect x="386.5" y="272.5" class="st3" width="28" height="28"/>
	<rect x="442.5" y="272.5" class="st3" width="28" height="28"/>
	<rect x="287.5" y="215.5" class="st3" width="14" height="197"/>
	<rect x="288" y="399.5" class="st3" width="224.5" height="13"/>
	<rect x="499.5" y="216" class="st3" width="13" height="196"/>
	<path class="st3" d="M483.3,215.5c-0.1,0.4-0.3,0.8-0.5,1.1c-0.2,0.4-0.5,0.8-0.7,1.2c-0.7,3-1.9,5.9-3.7,8.4
		c-3,8.2-11.9,12.8-21,13c-10.8,0.3-20.7-5.6-23.1-16.1c-0.3-0.5-0.6-1-0.8-1.6c-0.1-0.3-0.2-0.6-0.3-1c-0.6-0.9-1-1.9-1-2.9
		c0,0,0-0.1,0-0.1c-0.2-0.7-0.5-1.4-0.7-2.1c0,0,0-0.1,0-0.1h-62.3c-0.4,1.4-1.1,2.8-1.8,4c-0.1,0.2-0.2,0.4-0.3,0.6
		c0,0.3-0.1,0.6-0.1,0.9c-0.1,0.6-0.4,1.2-0.8,1.7c-0.1,0.6-0.3,1.2-0.6,1.7c-5,20.6-41.1,19.3-44.1-2.4c-0.1-0.2-0.1-0.3-0.1-0.5
		c-0.1-0.5-0.2-1.1-0.4-1.6c0,0,0,0,0,0c-0.1-0.5-0.3-1.1-0.4-1.6c-0.3-0.7-0.5-1.4-0.5-2.1v-0.1c-0.1-0.2-0.1-0.5-0.2-0.7h-32.2v43
		h225v-43H483.3z"/>
	<path class="st3" d="M131.5,211.5"/>
</g>
<g id="Layer_3" class="st0">
	<path class="st4" d="M354,238h-19c-6.6,0-12-5.4-12-12v0c0-6.6,5.4-12,12-12h19c6.6,0,12,5.4,12,12v0C366,232.6,360.6,238,354,238z
		"/>
	<path class="st5" d="M466,238h-19c-6.6,0-12-5.4-12-12v0c0-6.6,5.4-12,12-12h19c6.6,0,12,5.4,12,12v0C478,232.6,472.6,238,466,238z
		"/>
</g>
<g id="Layer_4">
	<path class="st6" d="M350.5,229.5h-13c-3.9,0-7-3.1-7-7v-28c0-3.9,3.1-7,7-7h13c3.9,0,7,3.1,7,7v28
		C357.5,226.4,354.4,229.5,350.5,229.5z"/>
	<path class="st6" d="M463.5,229.5h-13c-3.9,0-7-3.1-7-7v-28c0-3.9,3.1-7,7-7h13c3.9,0,7,3.1,7,7v28
		C470.5,226.4,467.4,229.5,463.5,229.5z"/>
</g>
</svg>
