<svg id="Layer_4" data-name="Layer 4" xmlns="http://www.w3.org/2000/svg" viewBox="0 0 66.25 95.27"><defs><style>.cls-1{fill:none;}.cls-1,.cls-2{stroke:#fff;stroke-miterlimit:10;}.cls-2,.cls-3{fill:#fff;}</style></defs><title>location</title><ellipse class="cls-1" cx="33.17" cy="36.33" rx="15.53" ry="15.72"/><ellipse class="cls-1" cx="33.13" cy="34.15" rx="32.63" ry="33.65"/><line class="cls-1" x1="7.6" y1="55.1" x2="33.02" y2="94.5"/><line class="cls-2" x1="58.45" y1="55.38" x2="33.02" y2="95"/><path class="cls-3" d="M82.32,38a5.68,5.68,0,0,0-.05-2,5.75,5.75,0,0,0,.14-3,5.58,5.58,0,0,0-.62-4,5.38,5.38,0,0,0,0-.91,6.61,6.61,0,0,0-.87-2.6,29.09,29.09,0,0,0-2.08-5.91,4.76,4.76,0,0,0-1.94-3,4.66,4.66,0,0,0-2-2.86,7,7,0,0,0-1-1.43,4.15,4.15,0,0,0-1.15-.86l-.41-.56A9.7,9.7,0,0,0,68.92,8c-3.33-3-6.65-5.19-11.3-5.69a4.23,4.23,0,0,0-1.13,0,10.66,10.66,0,0,0-3.17-.6,8.3,8.3,0,0,0-2.65-.42,13.45,13.45,0,0,0-2.41.27A17.62,17.62,0,0,0,43.7,2a4.48,4.48,0,0,0-1.54.63h-.26a4.18,4.18,0,0,0-1.67.26,3.85,3.85,0,0,0-2.14.69C34.66,6,29.77,7.3,27.58,11.21a.46.46,0,0,0-.22.08,6.3,6.3,0,0,0-.76.62.44.44,0,0,0-.11.53,27,27,0,0,0-7,12,4.51,4.51,0,0,0-.13.62.46.46,0,0,0-.31.32A9.53,9.53,0,0,0,18.41,28a.45.45,0,0,0,.19.38c-.13.61-.26,1.21-.37,1.83a17.73,17.73,0,0,0-.43,3.15c-.16,1.53-.27,3.07-.33,4.61a5.05,5.05,0,0,0,.25,1.85,16.31,16.31,0,0,0,1.77,7,5.17,5.17,0,0,0,1,1.34q.39,1,.85,2a5,5,0,0,0,.88,1.34A5.19,5.19,0,0,0,23,53.49a4.82,4.82,0,0,0,.28.61,15.86,15.86,0,0,0,1.56,2.14c.05.06.33.33.6.6,0,.07.05.14.08.22a4.79,4.79,0,0,0,1.76,2.61,4,4,0,0,0,.51,1.13,46.36,46.36,0,0,0,3.52,4.86,3.9,3.9,0,0,0,.72,2.5,108.69,108.69,0,0,1,6.66,9.69,54.51,54.51,0,0,0,5.6,7.82,7.57,7.57,0,0,0,1.44,3,4.5,4.5,0,0,0,2,2.22.45.45,0,0,0,.07.31l1.56,2.5a.51.51,0,0,0,.11.12h0a.55.55,0,0,0,.24.84.45.45,0,0,0,.46.34.5.5,0,0,0,.32-.88c.57-.73,1.12-1.48,1.63-2.26a.42.42,0,0,0,.05-.16l.07,0a.45.45,0,0,0,.46-.37.55.55,0,0,0,0-.65,4.64,4.64,0,0,0,2-2.57,5.22,5.22,0,0,0,1-.83c4.39-4.86,7.61-11,10.34-17.21a4.8,4.8,0,0,0,2-3.07,24.17,24.17,0,0,0,2.82-4.45,4.85,4.85,0,0,0,2.51-4.09c0-.08.08-.15.12-.23a4.55,4.55,0,0,0,2.34-2.65,4.55,4.55,0,0,0,1-1.12,4.93,4.93,0,0,0,1.79-3.27,5.16,5.16,0,0,0,.29-.74,5.52,5.52,0,0,0,.19-.6A5.35,5.35,0,0,0,80.08,48,.4.4,0,0,0,80,47.6a5.3,5.3,0,0,0,.48-1.78h.07a.5.5,0,0,0,.26-.92,5.25,5.25,0,0,0,.88-2.27A5.6,5.6,0,0,0,82.32,38ZM65.46,36.1A17.19,17.19,0,0,1,62.22,47c-.48.61-1,1.22-1.48,1.81a5.8,5.8,0,0,0-.47.63l-.44.11a4.32,4.32,0,0,0-3,2l-1,.22a17.18,17.18,0,0,0-2.67.56,8.94,8.94,0,0,1-1.25.09,4.44,4.44,0,0,0-2.36.65c-.5-.11-1-.22-1.46-.35a4.42,4.42,0,0,0-2.22,0,4.66,4.66,0,0,0-2.56-.93A4.4,4.4,0,0,0,41,50.47l-.36-.29a.42.42,0,0,0-.12-.48c-.76-.69-1.66-1.44-2.49-2.27a4.74,4.74,0,0,0-2.28-3.37c0-.09-.07-.17-.09-.27a.43.43,0,0,0-.25-.32,5.3,5.3,0,0,0-.77-2.13.54.54,0,0,0,0-.62,5.74,5.74,0,0,0-.13-2.6c0-.15-.07-.29-.11-.43a5.81,5.81,0,0,0,0-.62c0-1.26.64-2.89.77-4.38,0-.06.07-.71.09-1.2l.38-.39a4.74,4.74,0,0,0,1.44-3c.07-.13.16-.24.24-.37s.29-.28.44-.42a3.74,3.74,0,0,0,.88-.92A3.74,3.74,0,0,0,39.55,25a5.35,5.35,0,0,0,1.93-.88,7.41,7.41,0,0,0,.78-.68l.59-.27c.33-.16,1.18-.68,1.27-.72a39.74,39.74,0,0,1,4.75-1.3,5.56,5.56,0,0,0,1.07.1l.38,0a13.73,13.73,0,0,1,6.28,1.52c1.9,1,3.6,2.49,5.54,3.6A45.87,45.87,0,0,1,65.76,34l0,.1A4.91,4.91,0,0,0,65.46,36.1Z" transform="translate(-16.98 -0.79)"/></svg>