<?xml version="1.0" encoding="utf-8"?>
<!-- Generator: Adobe Illustrator 21.0.0, SVG Export Plug-In . SVG Version: 6.00 Build 0)  -->
<svg version="1.1" id="Layer_1" xmlns="http://www.w3.org/2000/svg" xmlns:xlink="http://www.w3.org/1999/xlink" x="0px" y="0px"
	 viewBox="0 0 295 260" style="enable-background:new 0 0 295 260;" xml:space="preserve">
<style type="text/css">
	.st0{fill:#FFFFFF;}
</style>
<path class="st0" d="M201.8,80c0,70.5-13.1,82-45.7,81.9c-35.1-0.1-46.7-19-45.4-81.9c0.9-48,13.9-78.6,45.6-79
	C191.6,0.6,201.8,33,201.8,80z"/>
<path class="st0" d="M168,258.2h-26.6c-0.1-26.1-0.2-52.3-0.3-78.4c9,0,17.9,0,26.9,0V258.2z"/>
<rect x="104.7" y="232.7" class="st0" width="102.6" height="26"/>
<path class="st0" d="M104.4,190.1c-4.6-2.6-13.7-8.5-20.1-19.4c-4-6.9-5.6-13.3-6.2-17.6c-0.3-17.1-0.5-34.2-0.8-51.4
	c9.2,0,18.4,0.1,27.6,0.1C104.7,131.3,104.6,160.7,104.4,190.1z"/>
<path class="st0" d="M101.7,187.6c-4.2-5.7-8.4-11.4-12.5-17.1c-2.2-3-4.4-6.1-6.7-9.1"/>
<path d="M62,157.9"/>
<path d="M112.6,174"/>
<path class="st0" d="M232.8,147.9c-8.6-0.1-17.1-0.2-25.7-0.4c0-1.8,0-3.5,0-5.3c0-13.5,0-27,0-40.5c8.6,0,17.1,0,25.7,0V147.9z"/>
<path class="st0" d="M207.6,143.1c-1,5-2.5,8.9-3.7,11.6c-2,4.3-3.7,6.5-4.1,7c-0.9,1.1-1.8,2-3.7,3.9c-1.9,1.9-3.4,3.3-5.4,4.9
	c-2.6,2.1-4.9,3.3-6.4,4.1c-2.6,1.4-6.2,3.3-10.9,4.4c-3.5,0.7-5.1,0.4-7,0.7c-9.2,1.2-19.2,13.9-16.7,20c2.7,6.7,21.3,6,33.4,2.9
	c20.8-5.4,32.7-20.5,36.1-25c8.8-11.5,12.2-23,13.6-29.7"/>
<path d="M163.3,180.5"/>
<path d="M128.4,175.3"/>
<path class="st0" d="M104.7,130.8c-3,9.1-15.3,48.3-3.6,57.4c1.3,1,4.6,3,6.4,4.1c5.1,3,10.9,6.5,19,9.4c0.7,0.2,3.2,1.1,6.6,2
	c7.6,2,13.7,2.4,13.9,1.6c0.1-0.6-3-1.7-2.7-2.9c0-0.2,0.2-0.3,0.2-0.4c0.8-1.6,1.9-6.1-2.3-22c0,0,0,0,0,0
	c-4.6-0.9-20-4.6-30.2-18.6c-4.1-5.6-6.1-11.2-7.2-15.3"/>
<path class="st0" d="M105.7,149.3c-1.8-1.1-2.5-2.2-2.8-3.1c-1-3.2,1.8-7.7,1.7-7.6l0,0c-0.2-5.9,0.5,7.9,0.5,8.2
	C105.4,147.9,105.6,148.7,105.7,149.3z"/>
<path d="M201.2,146"/>
<path d="M202.6,146.5"/>
</svg>
